<?xml version="1.0" standalone="no"?>
<!DOCTYPE svg PUBLIC "-//W3C//DTD SVG 20010904//EN"
 "http://www.w3.org/TR/2001/REC-SVG-20010904/DTD/svg10.dtd">
<svg version="1.0" xmlns="http://www.w3.org/2000/svg"
 width="100" height="100" viewBox="0 0 100 100"
 preserveAspectRatio="xMidYMid meet">

<g transform="translate(50,50) scale(0.03,0.03)"
fill="#000000" stroke="none">
<path d="M7828 5040 c-229 -58 -465 -266 -594 -523 -25 -48 -48 -85 -53 -83
-5 3 -27 36 -49 74 -112 188 -267 330 -447 409 -100 44 -164 57 -290 57 -105
0 -130 -4 -200 -28 -255 -87 -415 -313 -415 -584 0 -69 24 -236 44 -300 56
-190 182 -438 308 -610 223 -304 636 -696 956 -907 39 -26 72 -53 72 -59 -1
-31 -746 -432 -1049 -564 -85 -36 -91 -53 -10 -23 30 11 108 36 174 56 306 94
610 237 887 418 48 31 91 57 97 57 5 0 45 -21 88 -47 165 -98 412 -213 593
-276 68 -24 383 -115 455 -131 55 -13 12 10 -77 42 -135 48 -318 133 -613 282
-289 147 -345 177 -345 190 0 4 46 43 102 86 490 376 911 919 1077 1388 77
218 101 427 67 588 -43 202 -199 377 -410 459 -73 29 -93 33 -206 35 -69 2
-142 -1 -162 -6z m260 -96 c206 -42 381 -213 423 -411 7 -38 10 -106 6 -198
-4 -114 -11 -158 -35 -240 -100 -344 -352 -746 -681 -1087 -129 -135 -363
-340 -470 -413 l-69 -47 -59 35 c-349 214 -811 653 -1031 979 -222 331 -331
692 -281 930 29 135 128 267 245 326 238 119 522 65 742 -142 97 -93 157 -173
227 -306 45 -85 53 -95 80 -98 30 -3 32 0 85 110 138 284 307 464 505 537 116
44 193 50 313 25z"/>
</g>
</svg>
