<svg version="1.1" xmlns="http://www.w3.org/2000/svg" viewBox="0 0 3117.910801020038 1739.419647713427" width="3117.910801020038" height="1739.419647713427"><!-- svg-source:excalidraw --><metadata></metadata><defs><style class="style-fonts">
      </style></defs><rect x="0" y="0" width="3117.910801020038" height="1739.419647713427" fill="#ffffff"></rect><g stroke-linecap="round" transform="translate(10 10) rotate(0 1548.955400510019 859.7098238567135)"><path d="M32 0 C1224.74 5.54, 2415.8 5.1, 3065.91 0 M32 0 C935.32 10.37, 1838.86 10.09, 3065.91 0 M3065.91 0 C3088.76 -0.57, 3096.36 11.21, 3097.91 32 M3065.91 0 C3088.37 0.66, 3098.34 10.53, 3097.91 32 M3097.91 32 C3101.97 651.91, 3100.66 1271.57, 3097.91 1687.42 M3097.91 32 C3099.48 545.87, 3100.11 1059.34, 3097.91 1687.42 M3097.91 1687.42 C3098.43 1708.88, 3088.92 1718.78, 3065.91 1719.42 M3097.91 1687.42 C3095.95 1707.91, 3085.73 1718.4, 3065.91 1719.42 M3065.91 1719.42 C2183.15 1724.49, 1298.64 1724.95, 32 1719.42 M3065.91 1719.42 C2280.28 1721.28, 1494.8 1721.81, 32 1719.42 M32 1719.42 C12.08 1721.29, -0.54 1709.77, 0 1687.42 M32 1719.42 C8.38 1720.28, 0.87 1707.42, 0 1687.42 M0 1687.42 C-2.89 1253.49, -3.3 818.3, 0 32 M0 1687.42 C-0.94 1227.77, -1.15 768.86, 0 32 M0 32 C2 10.79, 9.81 -0.13, 32 0 M0 32 C-0.99 8.48, 10.04 -1.41, 32 0" stroke="#1e1e1e" stroke-width="2" fill="none"></path></g></svg>