<svg version="1.1" xmlns="http://www.w3.org/2000/svg" viewBox="0 0 25 25">
  <path fill="#000000" d="M0,0 h7 v7 h-7 z M1,1 v5 h5 v-5 z M2,2 h3 v3 h-3 z"/>
  <path fill="#000000" d="M18,0 h7 v7 h-7 z M19,1 v5 h5 v-5 z M20,2 h3 v3 h-3 z"/>
  <path fill="#000000" d="M0,18 h7 v7 h-7 z M1,19 v5 h5 v-5 z M2,20 h3 v3 h-3 z"/>
  <rect x="9" y="0" width="1" height="1" fill="#000000"/>
  <rect x="11" y="0" width="1" height="1" fill="#000000"/>
  <rect x="13" y="0" width="1" height="1" fill="#000000"/>
  <rect x="15" y="0" width="1" height="1" fill="#000000"/>
  <rect x="8" y="2" width="1" height="1" fill="#000000"/>
  <rect x="10" y="2" width="1" height="1" fill="#000000"/>
  <rect x="12" y="3" width="3" height="3" fill="#000000"/>
  <rect x="16" y="2" width="1" height="1" fill="#000000"/>
  <rect x="9" y="5" width="1" height="1" fill="#000000"/>
  <rect x="11" y="5" width="1" height="1" fill="#000000"/>
  <rect x="14" y="6" width="1" height="1" fill="#000000"/>
  <rect x="16" y="5" width="1" height="1" fill="#000000"/>
  <rect x="0" y="9" width="1" height="1" fill="#000000"/>
  <rect x="2" y="9" width="1" height="1" fill="#000000"/>
  <rect x="4" y="9" width="3" height="1" fill="#000000"/>
  <rect x="8" y="8" width="9" height="9" fill="#000000"/>
  <rect x="19" y="9" width="1" height="1" fill="#000000"/>
  <rect x="21" y="9" width="1" height="1" fill="#000000"/>
  <rect x="23" y="9" width="1" height="1" fill="#000000"/>
  <rect x="0" y="11" width="1" height="1" fill="#000000"/>
  <rect x="2" y="11" width="1" height="1" fill="#000000"/>
  <rect x="4" y="11" width="1" height="1" fill="#000000"/>
  <rect x="6" y="11" width="1" height="1" fill="#000000"/>
  <rect x="18" y="11" width="1" height="1" fill="#000000"/>
  <rect x="20" y="11" width="1" height="1" fill="#000000"/>
  <rect x="22" y="11" width="1" height="1" fill="#000000"/>
  <rect x="24" y="11" width="1" height="1" fill="#000000"/>
  <rect x="9" y="19" width="1" height="1" fill="#000000"/>
  <rect x="11" y="19" width="1" height="1" fill="#000000"/>
  <rect x="13" y="19" width="1" height="1" fill="#000000"/>
  <rect x="15" y="19" width="1" height="1" fill="#000000"/>
  <rect x="19" y="19" width="1" height="1" fill="#000000"/>
  <rect x="21" y="19" width="1" height="1" fill="#000000"/>
  <rect x="10" y="22" width="1" height="1" fill="#000000"/>
  <rect x="12" y="21" width="1" height="1" fill="#000000"/>
  <rect x="16" y="22" width="1" height="1" fill="#000000"/>
  <rect x="20" y="22" width="3" height="3" fill="#000000"/>
</svg>